<?xml version="1.0" encoding="UTF-8"?>
<svg xmlns="http://www.w3.org/2000/svg" width="368" height="116" viewBox="0 0 368 116">
<title>kitchen diagram — not a play view</title>
<desc>Indices only. Not Imagine. Not a play frame.</desc>
<rect x="0" y="0" width="368" height="116" fill="#f4f1ea"/>
<rect x="16" y="16" width="28" height="28" fill="none" stroke="#222"/>
<text x="30.0" y="34.0" text-anchor="middle" font-family="monospace" font-size="12" fill="#222">,</text>
<rect x="44" y="16" width="28" height="28" fill="none" stroke="#222"/>
<text x="58.0" y="34.0" text-anchor="middle" font-family="monospace" font-size="12" fill="#222">.</text>
<rect x="72" y="16" width="28" height="28" fill="none" stroke="#222"/>
<text x="86.0" y="34.0" text-anchor="middle" font-family="monospace" font-size="12" fill="#222">.</text>
<rect x="100" y="16" width="28" height="28" fill="none" stroke="#222"/>
<text x="114.0" y="34.0" text-anchor="middle" font-family="monospace" font-size="12" fill="#222">,</text>
<rect x="128" y="16" width="28" height="28" fill="none" stroke="#222"/>
<text x="142.0" y="34.0" text-anchor="middle" font-family="monospace" font-size="12" fill="#222">,</text>
<rect x="156" y="16" width="28" height="28" fill="none" stroke="#222"/>
<text x="170.0" y="34.0" text-anchor="middle" font-family="monospace" font-size="12" fill="#222">.</text>
<rect x="184" y="16" width="28" height="28" fill="none" stroke="#222"/>
<text x="198.0" y="34.0" text-anchor="middle" font-family="monospace" font-size="12" fill="#222">.</text>
<rect x="212" y="16" width="28" height="28" fill="none" stroke="#222"/>
<text x="226.0" y="34.0" text-anchor="middle" font-family="monospace" font-size="12" fill="#222">,</text>
<rect x="240" y="16" width="28" height="28" fill="none" stroke="#222"/>
<text x="254.0" y="34.0" text-anchor="middle" font-family="monospace" font-size="12" fill="#222">.</text>
<rect x="268" y="16" width="28" height="28" fill="none" stroke="#222"/>
<text x="282.0" y="34.0" text-anchor="middle" font-family="monospace" font-size="12" fill="#222">.</text>
<rect x="296" y="16" width="28" height="28" fill="none" stroke="#222"/>
<text x="310.0" y="34.0" text-anchor="middle" font-family="monospace" font-size="12" fill="#222">.</text>
<rect x="324" y="16" width="28" height="28" fill="none" stroke="#222"/>
<text x="338.0" y="34.0" text-anchor="middle" font-family="monospace" font-size="12" fill="#222">.</text>
<rect x="16" y="44" width="28" height="28" fill="none" stroke="#222"/>
<text x="30.0" y="62.0" text-anchor="middle" font-family="monospace" font-size="12" fill="#222">&gt;</text>
<rect x="44" y="44" width="28" height="28" fill="none" stroke="#222"/>
<text x="58.0" y="62.0" text-anchor="middle" font-family="monospace" font-size="12" fill="#222">-</text>
<rect x="72" y="44" width="28" height="28" fill="none" stroke="#222"/>
<text x="86.0" y="62.0" text-anchor="middle" font-family="monospace" font-size="12" fill="#222">=</text>
<rect x="100" y="44" width="28" height="28" fill="none" stroke="#222"/>
<text x="114.0" y="62.0" text-anchor="middle" font-family="monospace" font-size="12" fill="#222">-</text>
<rect x="128" y="44" width="28" height="28" fill="none" stroke="#222"/>
<text x="142.0" y="62.0" text-anchor="middle" font-family="monospace" font-size="12" fill="#222">-</text>
<rect x="156" y="44" width="28" height="28" fill="none" stroke="#222"/>
<text x="170.0" y="62.0" text-anchor="middle" font-family="monospace" font-size="12" fill="#222">-</text>
<rect x="184" y="44" width="28" height="28" fill="none" stroke="#222"/>
<text x="198.0" y="62.0" text-anchor="middle" font-family="monospace" font-size="12" fill="#222">=</text>
<rect x="212" y="44" width="28" height="28" fill="none" stroke="#222"/>
<text x="226.0" y="62.0" text-anchor="middle" font-family="monospace" font-size="12" fill="#222">-</text>
<rect x="240" y="44" width="28" height="28" fill="none" stroke="#222"/>
<text x="254.0" y="62.0" text-anchor="middle" font-family="monospace" font-size="12" fill="#222">-</text>
<rect x="268" y="44" width="28" height="28" fill="none" stroke="#222"/>
<text x="282.0" y="62.0" text-anchor="middle" font-family="monospace" font-size="12" fill="#222">=</text>
<rect x="296" y="44" width="28" height="28" fill="none" stroke="#222"/>
<text x="310.0" y="62.0" text-anchor="middle" font-family="monospace" font-size="12" fill="#222">-</text>
<rect x="324" y="44" width="28" height="28" fill="none" stroke="#222"/>
<text x="338.0" y="62.0" text-anchor="middle" font-family="monospace" font-size="12" fill="#222">&lt;</text>
<rect x="16" y="72" width="28" height="28" fill="none" stroke="#222"/>
<text x="30.0" y="90.0" text-anchor="middle" font-family="monospace" font-size="12" fill="#222">,</text>
<rect x="44" y="72" width="28" height="28" fill="none" stroke="#222"/>
<text x="58.0" y="90.0" text-anchor="middle" font-family="monospace" font-size="12" fill="#222">.</text>
<rect x="72" y="72" width="28" height="28" fill="none" stroke="#222"/>
<text x="86.0" y="90.0" text-anchor="middle" font-family="monospace" font-size="12" fill="#222">.</text>
<rect x="100" y="72" width="28" height="28" fill="none" stroke="#222"/>
<text x="114.0" y="90.0" text-anchor="middle" font-family="monospace" font-size="12" fill="#222">.</text>
<rect x="128" y="72" width="28" height="28" fill="none" stroke="#222"/>
<text x="142.0" y="90.0" text-anchor="middle" font-family="monospace" font-size="12" fill="#222">.</text>
<rect x="156" y="72" width="28" height="28" fill="none" stroke="#222"/>
<text x="170.0" y="90.0" text-anchor="middle" font-family="monospace" font-size="12" fill="#222">.</text>
<rect x="184" y="72" width="28" height="28" fill="none" stroke="#222"/>
<text x="198.0" y="90.0" text-anchor="middle" font-family="monospace" font-size="12" fill="#222">.</text>
<rect x="212" y="72" width="28" height="28" fill="none" stroke="#222"/>
<text x="226.0" y="90.0" text-anchor="middle" font-family="monospace" font-size="12" fill="#222">.</text>
<rect x="240" y="72" width="28" height="28" fill="none" stroke="#222"/>
<text x="254.0" y="90.0" text-anchor="middle" font-family="monospace" font-size="12" fill="#222">.</text>
<rect x="268" y="72" width="28" height="28" fill="none" stroke="#222"/>
<text x="282.0" y="90.0" text-anchor="middle" font-family="monospace" font-size="12" fill="#222">,</text>
<rect x="296" y="72" width="28" height="28" fill="none" stroke="#222"/>
<text x="310.0" y="90.0" text-anchor="middle" font-family="monospace" font-size="12" fill="#222">,</text>
<rect x="324" y="72" width="28" height="28" fill="none" stroke="#222"/>
<text x="338.0" y="90.0" text-anchor="middle" font-family="monospace" font-size="12" fill="#222">,</text>
</svg>
